<svg xmlns="http://www.w3.org/2000/svg" xmlns:xlink="http://www.w3.org/1999/xlink" width="24" height="24" viewBox="0 0 24 24">
  <defs>
    <clipPath id="clip-path">
      <path id="Path_13" data-name="Path 13" d="M-345.079,295.118h-11.442v4.636h6.586c-.614,2.945-3.181,4.636-6.586,4.636a7.16,7.16,0,0,1-7.256-7.091,7.16,7.16,0,0,1,7.256-7.091A7.2,7.2,0,0,1-352,291.791l3.572-3.491a12.386,12.386,0,0,0-8.093-3,12.107,12.107,0,0,0-12.279,12,12.107,12.107,0,0,0,12.279,12c6.14,0,11.721-4.364,11.721-12A9.742,9.742,0,0,0-345.079,295.118Z" transform="translate(368.8 -285.3)"/>
    </clipPath>
  </defs>
  <g id="google-g-2015" transform="translate(368.8 -285.3)">
    <g id="Group_74" data-name="Group 74" transform="translate(-368.8 285.3)">
      <g id="Group_68" data-name="Group 68" clip-path="url(#clip-path)">
        <path id="Path_12" data-name="Path 12" d="M-370.8,308.482V294.3l9.488,7.091Z" transform="translate(369.684 -289.391)" fill="#fbbc05"/>
      </g>
      <g id="Group_69" data-name="Group 69" clip-path="url(#clip-path)">
        <path id="Path_14" data-name="Path 14" d="M-370.8,289.3l9.488,7.091,3.907-3.327,13.4-2.127V283.3H-370.8Z" transform="translate(369.684 -284.391)" fill="#ea4335"/>
      </g>
      <g id="Group_71" data-name="Group 71">
        <g id="Group_70" data-name="Group 70" clip-path="url(#clip-path)">
          <path id="Path_16" data-name="Path 16" d="M-370.8,303.482l16.744-12.545,4.409.545,5.637-8.182v26.182H-370.8Z" transform="translate(369.684 -284.391)" fill="#34a853"/>
        </g>
      </g>
      <g id="Group_73" data-name="Group 73">
        <g id="Group_72" data-name="Group 72" clip-path="url(#clip-path)">
          <path id="Path_18" data-name="Path 18" d="M-338.265,314.482l-17.3-13.091-2.233-1.636,19.535-5.455Z" transform="translate(363.94 -289.391)" fill="#4285f4"/>
        </g>
      </g>
    </g>
  </g>
</svg>
